<svg xmlns="http://www.w3.org/2000/svg" viewBox="0 0 800 560">
  <rect width="800" height="560" fill="#e7dcc4"/>
  <path d="M0 300c142-72 244-92 362-69 116 23 191 100 438 75v254H0V300z" fill="#a98963"/>
  <path d="M219 0c63 54 102 121 104 200 2 92-43 141-44 222-1 41 13 84 52 138h126c-37-31-63-75-64-136-1-70 39-122 42-213 3-103-38-179-106-211H219z" fill="#77a4a3"/>
  <path d="M336 0c62 52 104 134 109 218 5 91-26 121-25 201 1 53 22 101 52 141h120c-38-39-56-79-56-133 0-74 29-119 24-204-6-104-47-178-105-223H336z" fill="#5f8c8e"/>
  <circle cx="589" cy="126" r="46" fill="#fff1d5"/>
</svg>
