<svg xmlns="http://www.w3.org/2000/svg" viewBox="0 0 800 560">
  <rect width="800" height="560" fill="#dce8e7"/>
  <rect y="312" width="800" height="248" fill="#4a8a9d"/>
  <path d="M0 288c101-38 173-64 288-64 102 0 163 35 242 35 78 0 148-26 270-60v113H0V288z" fill="#89b5b3"/>
  <path d="M120 314h379c36 0 67 27 71 63l3 27H204c-43 0-76-18-89-48l-19-42h24z" fill="#334c56"/>
  <path d="M321 273l26 41" stroke="#f6d69a" stroke-width="5" stroke-linecap="round"/>
  <path d="M347 314c41-42 83-67 152-89" stroke="#f6d69a" stroke-width="4" fill="none"/>
  <circle cx="529" cy="224" r="7" fill="#f6d69a"/>
  <circle cx="677" cy="118" r="48" fill="#f7eed7"/>
</svg>
