<svg xmlns="http://www.w3.org/2000/svg" viewBox="0 0 800 560">
  <rect width="800" height="560" fill="#dbe3d2"/>
  <path d="M0 238c95 12 162 54 250 54 98 0 141-45 237-45 93 0 154 47 313 71v242H0V238z" fill="#61816e"/>
  <path d="M0 347c103-26 198-20 297 25 99 46 193 72 292 72 80 0 146-21 211-48v164H0V347z" fill="#4e6451"/>
  <path d="M351 395c48-35 111-50 185-41-42-54-123-85-189-76-73 10-123 47-161 119 54-15 109-16 165-2z" fill="#c89f63"/>
  <circle cx="126" cy="146" r="44" fill="#f5ecd7"/>
</svg>
