<svg xmlns="http://www.w3.org/2000/svg" viewBox="0 0 1200 900">
  <defs>
    <linearGradient id="sky" x1="0%" x2="0%" y1="0%" y2="100%">
      <stop offset="0%" stop-color="#d9ecec"/>
      <stop offset="100%" stop-color="#aac6c5"/>
    </linearGradient>
    <linearGradient id="ridge" x1="0%" x2="100%" y1="0%" y2="0%">
      <stop offset="0%" stop-color="#486f66"/>
      <stop offset="100%" stop-color="#284e4d"/>
    </linearGradient>
    <linearGradient id="water" x1="0%" x2="100%" y1="0%" y2="0%">
      <stop offset="0%" stop-color="#3f7b95"/>
      <stop offset="100%" stop-color="#204b63"/>
    </linearGradient>
  </defs>
  <rect width="1200" height="900" fill="url(#sky)"/>
  <circle cx="874" cy="153" r="58" fill="#f2e2a6"/>
  <path d="M0 401c121 79 220 104 346 73 94-24 163-77 264-77 93 0 156 40 238 40 119 0 190-48 352-23v486H0V401z" fill="url(#ridge)"/>
  <path d="M0 558c110-18 233-6 352 44 110 46 210 76 352 76 177 0 313-59 496-138v360H0V558z" fill="url(#water)"/>
  <path d="M148 603c114-40 266-35 392 34 124 68 211 82 333 75-86 67-213 115-362 115-159 0-299-42-363-100z" fill="#19343b" opacity=".34"/>
  <path d="M506 524c34 0 67 13 93 35l-26 18c-19-16-42-24-67-24-39 0-69 16-108 55l-20-19c42-43 79-65 128-65z" fill="#f1d18f"/>
  <path d="M626 575c0 24-76 42-170 42s-170-18-170-42 76-42 170-42 170 18 170 42z" fill="#3b2417"/>
</svg>
